<mxfile host="app.diagrams.net" modified="2021-08-29T22:31:51.798Z" agent="5.0 (Windows NT 10.0; Win64; x64) AppleWebKit/537.36 (KHTML, like Gecko) Chrome/92.0.4515.159 Safari/537.36" etag="GYOjbVmn2Ds67OBi8gYj" version="15.0.3" type="github">
  <diagram id="R2lEEEUBdFMjLlhIrx00" name="Page-1">
    <mxGraphModel dx="868" dy="464" grid="1" gridSize="10" guides="1" tooltips="1" connect="1" arrows="1" fold="1" page="1" pageScale="1" pageWidth="850" pageHeight="1100" math="0" shadow="0" extFonts="Permanent Marker^https://fonts.googleapis.com/css?family=Permanent+Marker">
      <root>
        <mxCell id="0" />
        <mxCell id="1" parent="0" />
        <mxCell id="jvarzodGkXvsKdxR9Tx0-2" value="&lt;b&gt;&lt;font style=&quot;font-size: 16px&quot;&gt;User&lt;/font&gt;&lt;/b&gt;" style="rounded=1;whiteSpace=wrap;html=1;" vertex="1" parent="1">
          <mxGeometry x="170" y="420" width="140" height="60" as="geometry" />
        </mxCell>
        <mxCell id="jvarzodGkXvsKdxR9Tx0-3" value="Username" style="ellipse;whiteSpace=wrap;html=1;" vertex="1" parent="1">
          <mxGeometry x="20" y="430" width="90" height="60" as="geometry" />
        </mxCell>
        <mxCell id="jvarzodGkXvsKdxR9Tx0-4" value="Email" style="ellipse;whiteSpace=wrap;html=1;" vertex="1" parent="1">
          <mxGeometry x="60" y="330" width="90" height="60" as="geometry" />
        </mxCell>
        <mxCell id="jvarzodGkXvsKdxR9Tx0-5" value="Name" style="ellipse;whiteSpace=wrap;html=1;" vertex="1" parent="1">
          <mxGeometry x="170" y="310" width="90" height="60" as="geometry" />
        </mxCell>
        <mxCell id="jvarzodGkXvsKdxR9Tx0-6" value="Password" style="ellipse;whiteSpace=wrap;html=1;" vertex="1" parent="1">
          <mxGeometry x="70" y="530" width="90" height="60" as="geometry" />
        </mxCell>
        <mxCell id="jvarzodGkXvsKdxR9Tx0-9" value="" style="endArrow=none;html=1;exitX=0.5;exitY=0;exitDx=0;exitDy=0;" edge="1" parent="1" source="jvarzodGkXvsKdxR9Tx0-2">
          <mxGeometry width="50" height="50" relative="1" as="geometry">
            <mxPoint x="400" y="570" as="sourcePoint" />
            <mxPoint x="223" y="370" as="targetPoint" />
          </mxGeometry>
        </mxCell>
        <mxCell id="jvarzodGkXvsKdxR9Tx0-10" value="" style="endArrow=none;html=1;exitX=1;exitY=1;exitDx=0;exitDy=0;entryX=0.25;entryY=0;entryDx=0;entryDy=0;" edge="1" parent="1" source="jvarzodGkXvsKdxR9Tx0-4" target="jvarzodGkXvsKdxR9Tx0-2">
          <mxGeometry width="50" height="50" relative="1" as="geometry">
            <mxPoint x="400" y="570" as="sourcePoint" />
            <mxPoint x="450" y="520" as="targetPoint" />
          </mxGeometry>
        </mxCell>
        <mxCell id="jvarzodGkXvsKdxR9Tx0-11" value="" style="endArrow=none;html=1;exitX=1;exitY=0.5;exitDx=0;exitDy=0;entryX=0;entryY=0.5;entryDx=0;entryDy=0;" edge="1" parent="1" source="jvarzodGkXvsKdxR9Tx0-3" target="jvarzodGkXvsKdxR9Tx0-2">
          <mxGeometry width="50" height="50" relative="1" as="geometry">
            <mxPoint x="400" y="570" as="sourcePoint" />
            <mxPoint x="450" y="520" as="targetPoint" />
          </mxGeometry>
        </mxCell>
        <mxCell id="jvarzodGkXvsKdxR9Tx0-12" value="" style="endArrow=none;html=1;exitX=1;exitY=0;exitDx=0;exitDy=0;entryX=0.25;entryY=1;entryDx=0;entryDy=0;" edge="1" parent="1" source="jvarzodGkXvsKdxR9Tx0-6" target="jvarzodGkXvsKdxR9Tx0-2">
          <mxGeometry width="50" height="50" relative="1" as="geometry">
            <mxPoint x="400" y="570" as="sourcePoint" />
            <mxPoint x="450" y="520" as="targetPoint" />
          </mxGeometry>
        </mxCell>
        <mxCell id="jvarzodGkXvsKdxR9Tx0-13" value="&lt;font style=&quot;font-size: 17px&quot;&gt;&lt;b&gt;Club&lt;/b&gt;&lt;/font&gt;" style="rounded=1;whiteSpace=wrap;html=1;" vertex="1" parent="1">
          <mxGeometry x="550" y="420" width="120" height="60" as="geometry" />
        </mxCell>
        <mxCell id="jvarzodGkXvsKdxR9Tx0-14" value="Titlte" style="ellipse;whiteSpace=wrap;html=1;" vertex="1" parent="1">
          <mxGeometry x="565" y="300" width="105" height="70" as="geometry" />
        </mxCell>
        <mxCell id="jvarzodGkXvsKdxR9Tx0-15" value="Description" style="ellipse;whiteSpace=wrap;html=1;" vertex="1" parent="1">
          <mxGeometry x="690" y="300" width="105" height="70" as="geometry" />
        </mxCell>
        <mxCell id="jvarzodGkXvsKdxR9Tx0-16" value="Category" style="ellipse;whiteSpace=wrap;html=1;" vertex="1" parent="1">
          <mxGeometry x="730" y="380" width="105" height="70" as="geometry" />
        </mxCell>
        <mxCell id="jvarzodGkXvsKdxR9Tx0-17" value="Creator" style="ellipse;whiteSpace=wrap;html=1;" vertex="1" parent="1">
          <mxGeometry x="700" y="480" width="105" height="70" as="geometry" />
        </mxCell>
        <mxCell id="jvarzodGkXvsKdxR9Tx0-18" value="" style="endArrow=none;html=1;entryX=0.5;entryY=1;entryDx=0;entryDy=0;exitX=0.5;exitY=0;exitDx=0;exitDy=0;" edge="1" parent="1" source="jvarzodGkXvsKdxR9Tx0-13" target="jvarzodGkXvsKdxR9Tx0-14">
          <mxGeometry width="50" height="50" relative="1" as="geometry">
            <mxPoint x="400" y="660" as="sourcePoint" />
            <mxPoint x="450" y="610" as="targetPoint" />
          </mxGeometry>
        </mxCell>
        <mxCell id="jvarzodGkXvsKdxR9Tx0-19" value="" style="endArrow=none;html=1;entryX=0;entryY=1;entryDx=0;entryDy=0;exitX=0.75;exitY=0;exitDx=0;exitDy=0;" edge="1" parent="1" source="jvarzodGkXvsKdxR9Tx0-13" target="jvarzodGkXvsKdxR9Tx0-15">
          <mxGeometry width="50" height="50" relative="1" as="geometry">
            <mxPoint x="400" y="560" as="sourcePoint" />
            <mxPoint x="450" y="510" as="targetPoint" />
          </mxGeometry>
        </mxCell>
        <mxCell id="jvarzodGkXvsKdxR9Tx0-20" value="" style="endArrow=none;html=1;exitX=1;exitY=0.5;exitDx=0;exitDy=0;" edge="1" parent="1" source="jvarzodGkXvsKdxR9Tx0-13" target="jvarzodGkXvsKdxR9Tx0-16">
          <mxGeometry width="50" height="50" relative="1" as="geometry">
            <mxPoint x="400" y="560" as="sourcePoint" />
            <mxPoint x="450" y="510" as="targetPoint" />
          </mxGeometry>
        </mxCell>
        <mxCell id="jvarzodGkXvsKdxR9Tx0-21" value="" style="endArrow=none;html=1;entryX=0;entryY=0.5;entryDx=0;entryDy=0;exitX=0.75;exitY=1;exitDx=0;exitDy=0;" edge="1" parent="1" source="jvarzodGkXvsKdxR9Tx0-13" target="jvarzodGkXvsKdxR9Tx0-17">
          <mxGeometry width="50" height="50" relative="1" as="geometry">
            <mxPoint x="400" y="560" as="sourcePoint" />
            <mxPoint x="450" y="510" as="targetPoint" />
          </mxGeometry>
        </mxCell>
        <mxCell id="jvarzodGkXvsKdxR9Tx0-22" value="" style="endArrow=classic;startArrow=classic;html=1;entryX=0;entryY=0.5;entryDx=0;entryDy=0;exitX=1;exitY=0.5;exitDx=0;exitDy=0;" edge="1" parent="1" source="jvarzodGkXvsKdxR9Tx0-2" target="jvarzodGkXvsKdxR9Tx0-13">
          <mxGeometry width="50" height="50" relative="1" as="geometry">
            <mxPoint x="400" y="560" as="sourcePoint" />
            <mxPoint x="450" y="510" as="targetPoint" />
          </mxGeometry>
        </mxCell>
        <mxCell id="jvarzodGkXvsKdxR9Tx0-23" value="&lt;font style=&quot;font-size: 15px&quot;&gt;N:N&lt;/font&gt;" style="text;html=1;resizable=0;autosize=1;align=center;verticalAlign=middle;points=[];fillColor=none;strokeColor=none;rounded=0;" vertex="1" parent="1">
          <mxGeometry x="405" y="420" width="40" height="20" as="geometry" />
        </mxCell>
        <mxCell id="jvarzodGkXvsKdxR9Tx0-24" value="&lt;b&gt;&lt;font style=&quot;font-size: 15px&quot;&gt;Post&lt;/font&gt;&lt;/b&gt;" style="rounded=1;whiteSpace=wrap;html=1;" vertex="1" parent="1">
          <mxGeometry x="365" y="150" width="120" height="60" as="geometry" />
        </mxCell>
        <mxCell id="jvarzodGkXvsKdxR9Tx0-25" value="Content" style="ellipse;whiteSpace=wrap;html=1;" vertex="1" parent="1">
          <mxGeometry x="290" y="30" width="105" height="70" as="geometry" />
        </mxCell>
        <mxCell id="jvarzodGkXvsKdxR9Tx0-26" value="Created At" style="ellipse;whiteSpace=wrap;html=1;" vertex="1" parent="1">
          <mxGeometry x="405" y="40" width="105" height="70" as="geometry" />
        </mxCell>
        <mxCell id="jvarzodGkXvsKdxR9Tx0-27" value="Created By" style="ellipse;whiteSpace=wrap;html=1;" vertex="1" parent="1">
          <mxGeometry x="500" y="90" width="105" height="70" as="geometry" />
        </mxCell>
        <mxCell id="jvarzodGkXvsKdxR9Tx0-28" value="Title" style="ellipse;whiteSpace=wrap;html=1;" vertex="1" parent="1">
          <mxGeometry x="215" y="90" width="105" height="70" as="geometry" />
        </mxCell>
        <mxCell id="jvarzodGkXvsKdxR9Tx0-29" value="" style="endArrow=none;html=1;entryX=0.952;entryY=0.7;entryDx=0;entryDy=0;exitX=0;exitY=0.25;exitDx=0;exitDy=0;entryPerimeter=0;" edge="1" parent="1" source="jvarzodGkXvsKdxR9Tx0-24" target="jvarzodGkXvsKdxR9Tx0-28">
          <mxGeometry width="50" height="50" relative="1" as="geometry">
            <mxPoint x="400" y="260" as="sourcePoint" />
            <mxPoint x="450" y="210" as="targetPoint" />
          </mxGeometry>
        </mxCell>
        <mxCell id="jvarzodGkXvsKdxR9Tx0-30" value="" style="endArrow=none;html=1;entryX=0.5;entryY=1;entryDx=0;entryDy=0;" edge="1" parent="1" source="jvarzodGkXvsKdxR9Tx0-24" target="jvarzodGkXvsKdxR9Tx0-25">
          <mxGeometry width="50" height="50" relative="1" as="geometry">
            <mxPoint x="400" y="260" as="sourcePoint" />
            <mxPoint x="450" y="210" as="targetPoint" />
          </mxGeometry>
        </mxCell>
        <mxCell id="jvarzodGkXvsKdxR9Tx0-31" value="" style="endArrow=none;html=1;entryX=0.438;entryY=1.014;entryDx=0;entryDy=0;entryPerimeter=0;exitX=0.592;exitY=0.033;exitDx=0;exitDy=0;exitPerimeter=0;" edge="1" parent="1" source="jvarzodGkXvsKdxR9Tx0-24" target="jvarzodGkXvsKdxR9Tx0-26">
          <mxGeometry width="50" height="50" relative="1" as="geometry">
            <mxPoint x="400" y="260" as="sourcePoint" />
            <mxPoint x="450" y="210" as="targetPoint" />
          </mxGeometry>
        </mxCell>
        <mxCell id="jvarzodGkXvsKdxR9Tx0-32" value="" style="endArrow=none;html=1;entryX=0;entryY=1;entryDx=0;entryDy=0;exitX=1;exitY=0.5;exitDx=0;exitDy=0;" edge="1" parent="1" source="jvarzodGkXvsKdxR9Tx0-24" target="jvarzodGkXvsKdxR9Tx0-27">
          <mxGeometry width="50" height="50" relative="1" as="geometry">
            <mxPoint x="400" y="260" as="sourcePoint" />
            <mxPoint x="450" y="210" as="targetPoint" />
          </mxGeometry>
        </mxCell>
        <mxCell id="jvarzodGkXvsKdxR9Tx0-33" value="" style="endArrow=classic;startArrow=classic;html=1;entryX=0.25;entryY=1;entryDx=0;entryDy=0;exitX=1;exitY=0;exitDx=0;exitDy=0;" edge="1" parent="1" source="jvarzodGkXvsKdxR9Tx0-2" target="jvarzodGkXvsKdxR9Tx0-24">
          <mxGeometry width="50" height="50" relative="1" as="geometry">
            <mxPoint x="300" y="430" as="sourcePoint" />
            <mxPoint x="450" y="410" as="targetPoint" />
          </mxGeometry>
        </mxCell>
        <mxCell id="jvarzodGkXvsKdxR9Tx0-34" value="&lt;font style=&quot;font-size: 15px&quot;&gt;1:N&lt;/font&gt;" style="text;html=1;resizable=0;autosize=1;align=center;verticalAlign=middle;points=[];fillColor=none;strokeColor=none;rounded=0;rotation=-70;" vertex="1" parent="1">
          <mxGeometry x="320" y="270" width="40" height="20" as="geometry" />
        </mxCell>
        <mxCell id="jvarzodGkXvsKdxR9Tx0-35" value="" style="endArrow=classic;startArrow=classic;html=1;entryX=0.583;entryY=0.983;entryDx=0;entryDy=0;entryPerimeter=0;exitX=0;exitY=0;exitDx=0;exitDy=0;" edge="1" parent="1" source="jvarzodGkXvsKdxR9Tx0-13" target="jvarzodGkXvsKdxR9Tx0-24">
          <mxGeometry width="50" height="50" relative="1" as="geometry">
            <mxPoint x="400" y="360" as="sourcePoint" />
            <mxPoint x="450" y="310" as="targetPoint" />
          </mxGeometry>
        </mxCell>
        <mxCell id="jvarzodGkXvsKdxR9Tx0-36" value="&lt;font style=&quot;font-size: 15px&quot;&gt;N:1&lt;/font&gt;" style="text;html=1;resizable=0;autosize=1;align=center;verticalAlign=middle;points=[];fillColor=none;strokeColor=none;rounded=0;rotation=60;" vertex="1" parent="1">
          <mxGeometry x="490" y="280" width="40" height="20" as="geometry" />
        </mxCell>
        <mxCell id="jvarzodGkXvsKdxR9Tx0-38" value="&lt;b&gt;&lt;font style=&quot;font-size: 15px&quot;&gt;Profile&lt;/font&gt;&lt;/b&gt;" style="rounded=1;whiteSpace=wrap;html=1;" vertex="1" parent="1">
          <mxGeometry x="290" y="710" width="120" height="60" as="geometry" />
        </mxCell>
        <mxCell id="jvarzodGkXvsKdxR9Tx0-39" value="Bio" style="ellipse;whiteSpace=wrap;html=1;" vertex="1" parent="1">
          <mxGeometry x="165" y="800" width="105" height="70" as="geometry" />
        </mxCell>
        <mxCell id="jvarzodGkXvsKdxR9Tx0-40" value="Interests" style="ellipse;whiteSpace=wrap;html=1;" vertex="1" parent="1">
          <mxGeometry x="210" y="880" width="100" height="70" as="geometry" />
        </mxCell>
        <mxCell id="jvarzodGkXvsKdxR9Tx0-41" value="Date of Birth" style="ellipse;whiteSpace=wrap;html=1;" vertex="1" parent="1">
          <mxGeometry x="335" y="875" width="110" height="80" as="geometry" />
        </mxCell>
        <mxCell id="jvarzodGkXvsKdxR9Tx0-42" value="Location" style="ellipse;whiteSpace=wrap;html=1;" vertex="1" parent="1">
          <mxGeometry x="405" y="805" width="110" height="70" as="geometry" />
        </mxCell>
        <mxCell id="jvarzodGkXvsKdxR9Tx0-43" value="" style="endArrow=none;html=1;exitX=0.743;exitY=0.057;exitDx=0;exitDy=0;exitPerimeter=0;entryX=0.25;entryY=1;entryDx=0;entryDy=0;" edge="1" parent="1" source="jvarzodGkXvsKdxR9Tx0-39" target="jvarzodGkXvsKdxR9Tx0-38">
          <mxGeometry width="50" height="50" relative="1" as="geometry">
            <mxPoint x="400" y="950" as="sourcePoint" />
            <mxPoint x="280" y="770" as="targetPoint" />
          </mxGeometry>
        </mxCell>
        <mxCell id="jvarzodGkXvsKdxR9Tx0-44" value="" style="endArrow=none;html=1;entryX=0.5;entryY=1;entryDx=0;entryDy=0;exitX=0.5;exitY=0;exitDx=0;exitDy=0;" edge="1" parent="1" source="jvarzodGkXvsKdxR9Tx0-40" target="jvarzodGkXvsKdxR9Tx0-38">
          <mxGeometry width="50" height="50" relative="1" as="geometry">
            <mxPoint x="400" y="950" as="sourcePoint" />
            <mxPoint x="450" y="900" as="targetPoint" />
          </mxGeometry>
        </mxCell>
        <mxCell id="jvarzodGkXvsKdxR9Tx0-45" value="" style="endArrow=none;html=1;entryX=0.5;entryY=1;entryDx=0;entryDy=0;exitX=0.5;exitY=0;exitDx=0;exitDy=0;" edge="1" parent="1" source="jvarzodGkXvsKdxR9Tx0-41" target="jvarzodGkXvsKdxR9Tx0-38">
          <mxGeometry width="50" height="50" relative="1" as="geometry">
            <mxPoint x="400" y="950" as="sourcePoint" />
            <mxPoint x="450" y="900" as="targetPoint" />
          </mxGeometry>
        </mxCell>
        <mxCell id="jvarzodGkXvsKdxR9Tx0-46" value="" style="endArrow=none;html=1;entryX=0.75;entryY=1;entryDx=0;entryDy=0;exitX=0;exitY=0;exitDx=0;exitDy=0;" edge="1" parent="1" source="jvarzodGkXvsKdxR9Tx0-42" target="jvarzodGkXvsKdxR9Tx0-38">
          <mxGeometry width="50" height="50" relative="1" as="geometry">
            <mxPoint x="400" y="950" as="sourcePoint" />
            <mxPoint x="450" y="900" as="targetPoint" />
          </mxGeometry>
        </mxCell>
        <mxCell id="jvarzodGkXvsKdxR9Tx0-47" value="" style="endArrow=classic;startArrow=classic;html=1;exitX=0.5;exitY=0;exitDx=0;exitDy=0;entryX=0.5;entryY=1;entryDx=0;entryDy=0;" edge="1" parent="1" source="jvarzodGkXvsKdxR9Tx0-38" target="jvarzodGkXvsKdxR9Tx0-2">
          <mxGeometry width="50" height="50" relative="1" as="geometry">
            <mxPoint x="400" y="550" as="sourcePoint" />
            <mxPoint x="450" y="500" as="targetPoint" />
          </mxGeometry>
        </mxCell>
        <mxCell id="jvarzodGkXvsKdxR9Tx0-48" value="&lt;font style=&quot;font-size: 15px&quot;&gt;1:1&lt;/font&gt;" style="text;html=1;resizable=0;autosize=1;align=center;verticalAlign=middle;points=[];fillColor=none;strokeColor=none;rounded=0;rotation=60;" vertex="1" parent="1">
          <mxGeometry x="290" y="600" width="40" height="20" as="geometry" />
        </mxCell>
      </root>
    </mxGraphModel>
  </diagram>
</mxfile>
